<svg xmlns="http://www.w3.org/2000/svg" version="1.1" xmlns:xlink="http://www.w3.org/1999/xlink" xmlns:svgjs="http://svgjs.dev/svgjs" width="1440" height="560" preserveAspectRatio="none" viewBox="0 0 1440 560"><g mask="url(&quot;#SvgjsMask1104&quot;)" fill="none"><path d="M0.9 308.97L128.21 382.47L128.21 529.47L0.9 602.97L-126.41 529.47L-126.41 382.47zM255.52 -132.03L382.83 -58.53L382.83 88.47L255.52 161.97L128.21 88.47L128.21 -58.53zM255.52 308.97L382.83 382.47L382.83 529.47L255.52 602.97L128.21 529.47L128.21 382.47zM382.83 529.47L510.14 602.97L510.14 749.97L382.83 823.47L255.52 749.97L255.52 602.97zM892.07 88.47L1019.37 161.97L1019.37 308.97L892.07 382.47L764.76 308.97L764.76 161.97zM1273.99 -132.03L1401.3 -58.53L1401.3 88.47L1273.99 161.97L1146.68 88.47L1146.68 -58.53zM1401.3 529.47L1528.61 602.97L1528.61 749.97L1401.3 823.47L1273.99 749.97L1273.99 602.97z" stroke="rgba(3, 47, 223, 0.08)" stroke-width="2"></path><path d="M-13.8 308.97 a14.7 14.7 0 1 0 29.4 0 a14.7 14.7 0 1 0 -29.4 0zM113.51 382.47 a14.7 14.7 0 1 0 29.4 0 a14.7 14.7 0 1 0 -29.4 0zM113.51 529.47 a14.7 14.7 0 1 0 29.4 0 a14.7 14.7 0 1 0 -29.4 0zM-13.8 602.97 a14.7 14.7 0 1 0 29.4 0 a14.7 14.7 0 1 0 -29.4 0zM-141.11 529.47 a14.7 14.7 0 1 0 29.4 0 a14.7 14.7 0 1 0 -29.4 0zM-141.11 382.47 a14.7 14.7 0 1 0 29.4 0 a14.7 14.7 0 1 0 -29.4 0zM240.82 -132.03 a14.7 14.7 0 1 0 29.4 0 a14.7 14.7 0 1 0 -29.4 0zM368.13 -58.53 a14.7 14.7 0 1 0 29.4 0 a14.7 14.7 0 1 0 -29.4 0zM368.13 88.47 a14.7 14.7 0 1 0 29.4 0 a14.7 14.7 0 1 0 -29.4 0zM240.82 161.97 a14.7 14.7 0 1 0 29.4 0 a14.7 14.7 0 1 0 -29.4 0zM113.51 88.47 a14.7 14.7 0 1 0 29.4 0 a14.7 14.7 0 1 0 -29.4 0zM113.51 -58.53 a14.7 14.7 0 1 0 29.4 0 a14.7 14.7 0 1 0 -29.4 0zM240.82 308.97 a14.7 14.7 0 1 0 29.4 0 a14.7 14.7 0 1 0 -29.4 0zM368.13 382.47 a14.7 14.7 0 1 0 29.4 0 a14.7 14.7 0 1 0 -29.4 0zM368.13 529.47 a14.7 14.7 0 1 0 29.4 0 a14.7 14.7 0 1 0 -29.4 0zM240.82 602.97 a14.7 14.7 0 1 0 29.4 0 a14.7 14.7 0 1 0 -29.4 0zM495.44 602.97 a14.7 14.7 0 1 0 29.4 0 a14.7 14.7 0 1 0 -29.4 0zM495.44 749.97 a14.7 14.7 0 1 0 29.4 0 a14.7 14.7 0 1 0 -29.4 0zM368.13 823.47 a14.7 14.7 0 1 0 29.4 0 a14.7 14.7 0 1 0 -29.4 0zM240.82 749.97 a14.7 14.7 0 1 0 29.4 0 a14.7 14.7 0 1 0 -29.4 0zM877.37 88.47 a14.7 14.7 0 1 0 29.4 0 a14.7 14.7 0 1 0 -29.4 0zM1004.67 161.97 a14.7 14.7 0 1 0 29.4 0 a14.7 14.7 0 1 0 -29.4 0zM1004.67 308.97 a14.7 14.7 0 1 0 29.4 0 a14.7 14.7 0 1 0 -29.4 0zM877.37 382.47 a14.7 14.7 0 1 0 29.4 0 a14.7 14.7 0 1 0 -29.4 0zM750.06 308.97 a14.7 14.7 0 1 0 29.4 0 a14.7 14.7 0 1 0 -29.4 0zM750.06 161.97 a14.7 14.7 0 1 0 29.4 0 a14.7 14.7 0 1 0 -29.4 0zM1259.29 -132.03 a14.7 14.7 0 1 0 29.4 0 a14.7 14.7 0 1 0 -29.4 0zM1386.6 -58.53 a14.7 14.7 0 1 0 29.4 0 a14.7 14.7 0 1 0 -29.4 0zM1386.6 88.47 a14.7 14.7 0 1 0 29.4 0 a14.7 14.7 0 1 0 -29.4 0zM1259.29 161.97 a14.7 14.7 0 1 0 29.4 0 a14.7 14.7 0 1 0 -29.4 0zM1131.98 88.47 a14.7 14.7 0 1 0 29.4 0 a14.7 14.7 0 1 0 -29.4 0zM1131.98 -58.53 a14.7 14.7 0 1 0 29.4 0 a14.7 14.7 0 1 0 -29.4 0zM1386.6 529.47 a14.7 14.7 0 1 0 29.4 0 a14.7 14.7 0 1 0 -29.4 0zM1513.91 602.97 a14.7 14.7 0 1 0 29.4 0 a14.7 14.7 0 1 0 -29.4 0zM1513.91 749.97 a14.7 14.7 0 1 0 29.4 0 a14.7 14.7 0 1 0 -29.4 0zM1386.6 823.47 a14.7 14.7 0 1 0 29.4 0 a14.7 14.7 0 1 0 -29.4 0zM1259.29 749.97 a14.7 14.7 0 1 0 29.4 0 a14.7 14.7 0 1 0 -29.4 0zM1259.29 602.97 a14.7 14.7 0 1 0 29.4 0 a14.7 14.7 0 1 0 -29.4 0z" fill="rgba(3, 47, 223, 0.08)"></path><path d="M17.28 433.06L60.58 458.06L60.58 508.06L17.28 533.06L-26.02 508.06L-26.02 458.06zM103.89 283.06L147.19 308.06L147.19 358.06L103.89 383.06L60.58 358.06L60.58 308.06zM233.79 508.06L277.1 533.06L277.1 583.06L233.79 608.06L190.49 583.06L190.49 533.06zM277.1 -16.94L320.4 8.06L320.4 58.06L277.1 83.06L233.79 58.06L233.79 8.06zM277.1 283.06L320.4 308.06L320.4 358.06L277.1 383.06L233.79 358.06L233.79 308.06zM363.7 433.06L407 458.06L407 508.06L363.7 533.06L320.4 508.06L320.4 458.06zM536.91 133.06L580.21 158.06L580.21 208.06L536.91 233.06L493.61 208.06L493.61 158.06zM666.82 58.06L710.12 83.06L710.12 133.06L666.82 158.06L623.51 133.06L623.51 83.06zM710.12 133.06L753.42 158.06L753.42 208.06L710.12 233.06L666.82 208.06L666.82 158.06zM840.03 208.06L883.33 233.06L883.33 283.06L840.03 308.06L796.73 283.06L796.73 233.06zM796.73 433.06L840.03 458.06L840.03 508.06L796.73 533.06L753.42 508.06L753.42 458.06zM926.63 208.06L969.94 233.06L969.94 283.06L926.63 308.06L883.33 283.06L883.33 233.06zM926.63 508.06L969.94 533.06L969.94 583.06L926.63 608.06L883.33 583.06L883.33 533.06zM969.94 133.06L1013.24 158.06L1013.24 208.06L969.94 233.06L926.63 208.06L926.63 158.06zM969.94 283.06L1013.24 308.06L1013.24 358.06L969.94 383.06L926.63 358.06L926.63 308.06zM1056.54 433.06L1099.84 458.06L1099.84 508.06L1056.54 533.06L1013.24 508.06L1013.24 458.06zM1186.45 208.06L1229.75 233.06L1229.75 283.06L1186.45 308.06L1143.14 283.06L1143.14 233.06zM1229.75 133.06L1273.05 158.06L1273.05 208.06L1229.75 233.06L1186.45 208.06L1186.45 158.06zM1229.75 433.06L1273.05 458.06L1273.05 508.06L1229.75 533.06L1186.45 508.06L1186.45 458.06zM1273.05 508.06L1316.36 533.06L1316.36 583.06L1273.05 608.06L1229.75 583.06L1229.75 533.06zM1316.36 -16.94L1359.66 8.06L1359.66 58.06L1316.36 83.06L1273.05 58.06L1273.05 8.06zM1359.66 208.06L1402.96 233.06L1402.96 283.06L1359.66 308.06L1316.36 283.06L1316.36 233.06zM1446.26 58.06L1489.57 83.06L1489.57 133.06L1446.26 158.06L1402.96 133.06L1402.96 83.06zM1402.96 433.06L1446.26 458.06L1446.26 508.06L1402.96 533.06L1359.66 508.06L1359.66 458.06z" stroke="rgba(0, 0, 0, 0)" stroke-width="2"></path></g><defs><mask id="SvgjsMask1104"><rect width="1440" height="560" fill="#ffffff"></rect></mask></defs></svg>