<svg xmlns="http://www.w3.org/2000/svg" version="1.1" xmlns:xlink="http://www.w3.org/1999/xlink" xmlns:svgjs="http://svgjs.dev/svgjs" width="1440" height="560" preserveAspectRatio="none" viewBox="0 0 1440 560"><g mask="url(&quot;#SvgjsMask1090&quot;)" fill="none"><path d="M134.37 -29.31L265.14 46.19L265.14 197.19L134.37 272.69L3.6 197.19L3.6 46.19zM134.37 423.69L265.14 499.19L265.14 650.19L134.37 725.69L3.6 650.19L3.6 499.19zM395.92 423.69L526.69 499.19L526.69 650.19L395.92 725.69L265.14 650.19L265.14 499.19zM657.46 423.69L788.24 499.19L788.24 650.19L657.46 725.69L526.69 650.19L526.69 499.19zM1442.11 -29.31L1572.88 46.19L1572.88 197.19L1442.11 272.69L1311.33 197.19L1311.33 46.19zM1572.88 197.19L1703.65 272.69L1703.65 423.69L1572.88 499.19L1442.11 423.69L1442.11 272.69z" stroke="rgba(3, 47, 223, 0.08)" stroke-width="2"></path><path d="M119.27 -29.31 a15.1 15.1 0 1 0 30.2 0 a15.1 15.1 0 1 0 -30.2 0zM250.04 46.19 a15.1 15.1 0 1 0 30.2 0 a15.1 15.1 0 1 0 -30.2 0zM250.04 197.19 a15.1 15.1 0 1 0 30.2 0 a15.1 15.1 0 1 0 -30.2 0zM119.27 272.69 a15.1 15.1 0 1 0 30.2 0 a15.1 15.1 0 1 0 -30.2 0zM-11.5 197.19 a15.1 15.1 0 1 0 30.2 0 a15.1 15.1 0 1 0 -30.2 0zM-11.5 46.19 a15.1 15.1 0 1 0 30.2 0 a15.1 15.1 0 1 0 -30.2 0zM119.27 423.69 a15.1 15.1 0 1 0 30.2 0 a15.1 15.1 0 1 0 -30.2 0zM250.04 499.19 a15.1 15.1 0 1 0 30.2 0 a15.1 15.1 0 1 0 -30.2 0zM250.04 650.19 a15.1 15.1 0 1 0 30.2 0 a15.1 15.1 0 1 0 -30.2 0zM119.27 725.69 a15.1 15.1 0 1 0 30.2 0 a15.1 15.1 0 1 0 -30.2 0zM-11.5 650.19 a15.1 15.1 0 1 0 30.2 0 a15.1 15.1 0 1 0 -30.2 0zM-11.5 499.19 a15.1 15.1 0 1 0 30.2 0 a15.1 15.1 0 1 0 -30.2 0zM380.82 423.69 a15.1 15.1 0 1 0 30.2 0 a15.1 15.1 0 1 0 -30.2 0zM511.59 499.19 a15.1 15.1 0 1 0 30.2 0 a15.1 15.1 0 1 0 -30.2 0zM511.59 650.19 a15.1 15.1 0 1 0 30.2 0 a15.1 15.1 0 1 0 -30.2 0zM380.82 725.69 a15.1 15.1 0 1 0 30.2 0 a15.1 15.1 0 1 0 -30.2 0zM642.36 423.69 a15.1 15.1 0 1 0 30.2 0 a15.1 15.1 0 1 0 -30.2 0zM773.14 499.19 a15.1 15.1 0 1 0 30.2 0 a15.1 15.1 0 1 0 -30.2 0zM773.14 650.19 a15.1 15.1 0 1 0 30.2 0 a15.1 15.1 0 1 0 -30.2 0zM642.36 725.69 a15.1 15.1 0 1 0 30.2 0 a15.1 15.1 0 1 0 -30.2 0zM1427.01 -29.31 a15.1 15.1 0 1 0 30.2 0 a15.1 15.1 0 1 0 -30.2 0zM1557.78 46.19 a15.1 15.1 0 1 0 30.2 0 a15.1 15.1 0 1 0 -30.2 0zM1557.78 197.19 a15.1 15.1 0 1 0 30.2 0 a15.1 15.1 0 1 0 -30.2 0zM1427.01 272.69 a15.1 15.1 0 1 0 30.2 0 a15.1 15.1 0 1 0 -30.2 0zM1296.23 197.19 a15.1 15.1 0 1 0 30.2 0 a15.1 15.1 0 1 0 -30.2 0zM1296.23 46.19 a15.1 15.1 0 1 0 30.2 0 a15.1 15.1 0 1 0 -30.2 0zM1688.55 272.69 a15.1 15.1 0 1 0 30.2 0 a15.1 15.1 0 1 0 -30.2 0zM1688.55 423.69 a15.1 15.1 0 1 0 30.2 0 a15.1 15.1 0 1 0 -30.2 0zM1557.78 499.19 a15.1 15.1 0 1 0 30.2 0 a15.1 15.1 0 1 0 -30.2 0zM1427.01 423.69 a15.1 15.1 0 1 0 30.2 0 a15.1 15.1 0 1 0 -30.2 0z" fill="rgba(3, 47, 223, 0.08)"></path><path d="M28.81 -0.33L72.11 24.67L72.11 74.67L28.81 99.67L-14.49 74.67L-14.49 24.67zM72.11 74.67L115.42 99.67L115.42 149.67L72.11 174.67L28.81 149.67L28.81 99.67zM28.81 149.67L72.11 174.67L72.11 224.67L28.81 249.67L-14.49 224.67L-14.49 174.67zM72.11 224.67L115.42 249.67L115.42 299.67L72.11 324.67L28.81 299.67L28.81 249.67zM72.11 374.67L115.42 399.67L115.42 449.67L72.11 474.67L28.81 449.67L28.81 399.67zM28.81 449.67L72.11 474.67L72.11 524.67L28.81 549.67L-14.49 524.67L-14.49 474.67zM115.42 -0.33L158.72 24.67L158.72 74.67L115.42 99.67L72.11 74.67L72.11 24.67zM158.72 74.67L202.02 99.67L202.02 149.67L158.72 174.67L115.42 149.67L115.42 99.67zM115.42 149.67L158.72 174.67L158.72 224.67L115.42 249.67L72.11 224.67L72.11 174.67zM115.42 299.67L158.72 324.67L158.72 374.67L115.42 399.67L72.11 374.67L72.11 324.67zM158.72 524.67L202.02 549.67L202.02 599.67L158.72 624.67L115.42 599.67L115.42 549.67zM245.32 74.67L288.63 99.67L288.63 149.67L245.32 174.67L202.02 149.67L202.02 99.67zM202.02 149.67L245.32 174.67L245.32 224.67L202.02 249.67L158.72 224.67L158.72 174.67zM245.32 224.67L288.63 249.67L288.63 299.67L245.32 324.67L202.02 299.67L202.02 249.67zM202.02 299.67L245.32 324.67L245.32 374.67L202.02 399.67L158.72 374.67L158.72 324.67zM245.32 374.67L288.63 399.67L288.63 449.67L245.32 474.67L202.02 449.67L202.02 399.67zM331.93 224.67L375.23 249.67L375.23 299.67L331.93 324.67L288.63 299.67L288.63 249.67zM418.53 224.67L461.84 249.67L461.84 299.67L418.53 324.67L375.23 299.67L375.23 249.67zM418.53 374.67L461.84 399.67L461.84 449.67L418.53 474.67L375.23 449.67L375.23 399.67zM461.84 -0.33L505.14 24.67L505.14 74.67L461.84 99.67L418.53 74.67L418.53 24.67zM505.14 74.67L548.44 99.67L548.44 149.67L505.14 174.67L461.84 149.67L461.84 99.67zM461.84 299.67L505.14 324.67L505.14 374.67L461.84 399.67L418.53 374.67L418.53 324.67zM461.84 449.67L505.14 474.67L505.14 524.67L461.84 549.67L418.53 524.67L418.53 474.67zM505.14 524.67L548.44 549.67L548.44 599.67L505.14 624.67L461.84 599.67L461.84 549.67zM591.74 224.67L635.04 249.67L635.04 299.67L591.74 324.67L548.44 299.67L548.44 249.67zM548.44 449.67L591.74 474.67L591.74 524.67L548.44 549.67L505.14 524.67L505.14 474.67zM591.74 524.67L635.04 549.67L635.04 599.67L591.74 624.67L548.44 599.67L548.44 549.67zM635.04 -0.33L678.35 24.67L678.35 74.67L635.04 99.67L591.74 74.67L591.74 24.67zM678.35 74.67L721.65 99.67L721.65 149.67L678.35 174.67L635.04 149.67L635.04 99.67zM635.04 149.67L678.35 174.67L678.35 224.67L635.04 249.67L591.74 224.67L591.74 174.67zM678.35 374.67L721.65 399.67L721.65 449.67L678.35 474.67L635.04 449.67L635.04 399.67zM764.95 74.67L808.25 99.67L808.25 149.67L764.95 174.67L721.65 149.67L721.65 99.67zM764.95 224.67L808.25 249.67L808.25 299.67L764.95 324.67L721.65 299.67L721.65 249.67zM721.65 299.67L764.95 324.67L764.95 374.67L721.65 399.67L678.35 374.67L678.35 324.67zM721.65 449.67L764.95 474.67L764.95 524.67L721.65 549.67L678.35 524.67L678.35 474.67zM808.25 -0.33L851.56 24.67L851.56 74.67L808.25 99.67L764.95 74.67L764.95 24.67zM851.56 74.67L894.86 99.67L894.86 149.67L851.56 174.67L808.25 149.67L808.25 99.67zM808.25 149.67L851.56 174.67L851.56 224.67L808.25 249.67L764.95 224.67L764.95 174.67zM894.86 -0.33L938.16 24.67L938.16 74.67L894.86 99.67L851.56 74.67L851.56 24.67zM938.16 74.67L981.47 99.67L981.47 149.67L938.16 174.67L894.86 149.67L894.86 99.67zM894.86 149.67L938.16 174.67L938.16 224.67L894.86 249.67L851.56 224.67L851.56 174.67zM938.16 224.67L981.47 249.67L981.47 299.67L938.16 324.67L894.86 299.67L894.86 249.67zM894.86 449.67L938.16 474.67L938.16 524.67L894.86 549.67L851.56 524.67L851.56 474.67zM938.16 524.67L981.47 549.67L981.47 599.67L938.16 624.67L894.86 599.67L894.86 549.67zM981.47 -0.33L1024.77 24.67L1024.77 74.67L981.47 99.67L938.16 74.67L938.16 24.67zM1024.77 224.67L1068.07 249.67L1068.07 299.67L1024.77 324.67L981.47 299.67L981.47 249.67zM981.47 299.67L1024.77 324.67L1024.77 374.67L981.47 399.67L938.16 374.67L938.16 324.67zM1024.77 374.67L1068.07 399.67L1068.07 449.67L1024.77 474.67L981.47 449.67L981.47 399.67zM1024.77 524.67L1068.07 549.67L1068.07 599.67L1024.77 624.67L981.47 599.67L981.47 549.67zM1111.37 74.67L1154.67 99.67L1154.67 149.67L1111.37 174.67L1068.07 149.67L1068.07 99.67zM1068.07 449.67L1111.37 474.67L1111.37 524.67L1068.07 549.67L1024.77 524.67L1024.77 474.67zM1197.98 74.67L1241.28 99.67L1241.28 149.67L1197.98 174.67L1154.67 149.67L1154.67 99.67zM1197.98 224.67L1241.28 249.67L1241.28 299.67L1197.98 324.67L1154.67 299.67L1154.67 249.67zM1197.98 374.67L1241.28 399.67L1241.28 449.67L1197.98 474.67L1154.67 449.67L1154.67 399.67zM1197.98 524.67L1241.28 549.67L1241.28 599.67L1197.98 624.67L1154.67 599.67L1154.67 549.67zM1284.58 224.67L1327.88 249.67L1327.88 299.67L1284.58 324.67L1241.28 299.67L1241.28 249.67zM1284.58 374.67L1327.88 399.67L1327.88 449.67L1284.58 474.67L1241.28 449.67L1241.28 399.67zM1327.88 149.67L1371.19 174.67L1371.19 224.67L1327.88 249.67L1284.58 224.67L1284.58 174.67zM1327.88 449.67L1371.19 474.67L1371.19 524.67L1327.88 549.67L1284.58 524.67L1284.58 474.67zM1371.19 524.67L1414.49 549.67L1414.49 599.67L1371.19 624.67L1327.88 599.67L1327.88 549.67zM1414.49 149.67L1457.79 174.67L1457.79 224.67L1414.49 249.67L1371.19 224.67L1371.19 174.67zM1457.79 224.67L1501.1 249.67L1501.1 299.67L1457.79 324.67L1414.49 299.67L1414.49 249.67zM1414.49 299.67L1457.79 324.67L1457.79 374.67L1414.49 399.67L1371.19 374.67L1371.19 324.67zM1457.79 374.67L1501.1 399.67L1501.1 449.67L1457.79 474.67L1414.49 449.67L1414.49 399.67zM1414.49 449.67L1457.79 474.67L1457.79 524.67L1414.49 549.67L1371.19 524.67L1371.19 474.67zM1457.79 524.67L1501.1 549.67L1501.1 599.67L1457.79 624.67L1414.49 599.67L1414.49 549.67z" stroke="rgba(0, 0, 0, 0)" stroke-width="2"></path></g><defs><mask id="SvgjsMask1090"><rect width="1440" height="560" fill="#ffffff"></rect></mask></defs></svg>