<svg xmlns="http://www.w3.org/2000/svg" version="1.1" xmlns:xlink="http://www.w3.org/1999/xlink" xmlns:svgjs="http://svgjs.dev/svgjs" width="1440" height="560" preserveAspectRatio="none" viewBox="0 0 1440 560"><g mask="url(&quot;#SvgjsMask1115&quot;)" fill="none"><path d="M152.57 90.38L269.48 157.88L269.48 292.88L152.57 360.38L35.65 292.88L35.65 157.88zM35.65 292.88L152.57 360.38L152.57 495.38L35.65 562.88L-81.27 495.38L-81.27 360.38zM152.57 495.38L269.48 562.88L269.48 697.88L152.57 765.38L35.65 697.88L35.65 562.88zM269.48 -112.12L386.4 -44.62L386.4 90.38L269.48 157.88L152.57 90.38L152.57 -44.62zM620.23 90.38L737.15 157.88L737.15 292.88L620.23 360.38L503.32 292.88L503.32 157.88zM737.15 -112.12L854.07 -44.62L854.07 90.38L737.15 157.88L620.23 90.38L620.23 -44.62zM1321.73 90.38L1438.65 157.88L1438.65 292.88L1321.73 360.38L1204.82 292.88L1204.82 157.88zM1204.82 292.88L1321.73 360.38L1321.73 495.38L1204.82 562.88L1087.9 495.38L1087.9 360.38zM1321.73 495.38L1438.65 562.88L1438.65 697.88L1321.73 765.38L1204.82 697.88L1204.82 562.88zM1555.57 90.38L1672.48 157.88L1672.48 292.88L1555.57 360.38L1438.65 292.88L1438.65 157.88zM1555.57 495.38L1672.48 562.88L1672.48 697.88L1555.57 765.38L1438.65 697.88L1438.65 562.88z" stroke="rgba(3, 223, 59, 0.05)" stroke-width="2"></path><path d="M139.07 90.38 a13.5 13.5 0 1 0 27 0 a13.5 13.5 0 1 0 -27 0zM255.98 157.88 a13.5 13.5 0 1 0 27 0 a13.5 13.5 0 1 0 -27 0zM255.98 292.88 a13.5 13.5 0 1 0 27 0 a13.5 13.5 0 1 0 -27 0zM139.07 360.38 a13.5 13.5 0 1 0 27 0 a13.5 13.5 0 1 0 -27 0zM22.15 292.88 a13.5 13.5 0 1 0 27 0 a13.5 13.5 0 1 0 -27 0zM22.15 157.88 a13.5 13.5 0 1 0 27 0 a13.5 13.5 0 1 0 -27 0zM139.07 495.38 a13.5 13.5 0 1 0 27 0 a13.5 13.5 0 1 0 -27 0zM22.15 562.88 a13.5 13.5 0 1 0 27 0 a13.5 13.5 0 1 0 -27 0zM-94.77 495.38 a13.5 13.5 0 1 0 27 0 a13.5 13.5 0 1 0 -27 0zM-94.77 360.38 a13.5 13.5 0 1 0 27 0 a13.5 13.5 0 1 0 -27 0zM255.98 562.88 a13.5 13.5 0 1 0 27 0 a13.5 13.5 0 1 0 -27 0zM255.98 697.88 a13.5 13.5 0 1 0 27 0 a13.5 13.5 0 1 0 -27 0zM139.07 765.38 a13.5 13.5 0 1 0 27 0 a13.5 13.5 0 1 0 -27 0zM22.15 697.88 a13.5 13.5 0 1 0 27 0 a13.5 13.5 0 1 0 -27 0zM255.98 -112.12 a13.5 13.5 0 1 0 27 0 a13.5 13.5 0 1 0 -27 0zM372.9 -44.62 a13.5 13.5 0 1 0 27 0 a13.5 13.5 0 1 0 -27 0zM372.9 90.38 a13.5 13.5 0 1 0 27 0 a13.5 13.5 0 1 0 -27 0zM139.07 -44.62 a13.5 13.5 0 1 0 27 0 a13.5 13.5 0 1 0 -27 0zM606.73 90.38 a13.5 13.5 0 1 0 27 0 a13.5 13.5 0 1 0 -27 0zM723.65 157.88 a13.5 13.5 0 1 0 27 0 a13.5 13.5 0 1 0 -27 0zM723.65 292.88 a13.5 13.5 0 1 0 27 0 a13.5 13.5 0 1 0 -27 0zM606.73 360.38 a13.5 13.5 0 1 0 27 0 a13.5 13.5 0 1 0 -27 0zM489.82 292.88 a13.5 13.5 0 1 0 27 0 a13.5 13.5 0 1 0 -27 0zM489.82 157.88 a13.5 13.5 0 1 0 27 0 a13.5 13.5 0 1 0 -27 0zM723.65 -112.12 a13.5 13.5 0 1 0 27 0 a13.5 13.5 0 1 0 -27 0zM840.57 -44.62 a13.5 13.5 0 1 0 27 0 a13.5 13.5 0 1 0 -27 0zM840.57 90.38 a13.5 13.5 0 1 0 27 0 a13.5 13.5 0 1 0 -27 0zM606.73 -44.62 a13.5 13.5 0 1 0 27 0 a13.5 13.5 0 1 0 -27 0zM1308.23 90.38 a13.5 13.5 0 1 0 27 0 a13.5 13.5 0 1 0 -27 0zM1425.15 157.88 a13.5 13.5 0 1 0 27 0 a13.5 13.5 0 1 0 -27 0zM1425.15 292.88 a13.5 13.5 0 1 0 27 0 a13.5 13.5 0 1 0 -27 0zM1308.23 360.38 a13.5 13.5 0 1 0 27 0 a13.5 13.5 0 1 0 -27 0zM1191.32 292.88 a13.5 13.5 0 1 0 27 0 a13.5 13.5 0 1 0 -27 0zM1191.32 157.88 a13.5 13.5 0 1 0 27 0 a13.5 13.5 0 1 0 -27 0zM1308.23 495.38 a13.5 13.5 0 1 0 27 0 a13.5 13.5 0 1 0 -27 0zM1191.32 562.88 a13.5 13.5 0 1 0 27 0 a13.5 13.5 0 1 0 -27 0zM1074.4 495.38 a13.5 13.5 0 1 0 27 0 a13.5 13.5 0 1 0 -27 0zM1074.4 360.38 a13.5 13.5 0 1 0 27 0 a13.5 13.5 0 1 0 -27 0zM1425.15 562.88 a13.5 13.5 0 1 0 27 0 a13.5 13.5 0 1 0 -27 0zM1425.15 697.88 a13.5 13.5 0 1 0 27 0 a13.5 13.5 0 1 0 -27 0zM1308.23 765.38 a13.5 13.5 0 1 0 27 0 a13.5 13.5 0 1 0 -27 0zM1191.32 697.88 a13.5 13.5 0 1 0 27 0 a13.5 13.5 0 1 0 -27 0zM1542.07 90.38 a13.5 13.5 0 1 0 27 0 a13.5 13.5 0 1 0 -27 0zM1658.98 157.88 a13.5 13.5 0 1 0 27 0 a13.5 13.5 0 1 0 -27 0zM1658.98 292.88 a13.5 13.5 0 1 0 27 0 a13.5 13.5 0 1 0 -27 0zM1542.07 360.38 a13.5 13.5 0 1 0 27 0 a13.5 13.5 0 1 0 -27 0zM1542.07 495.38 a13.5 13.5 0 1 0 27 0 a13.5 13.5 0 1 0 -27 0zM1658.98 562.88 a13.5 13.5 0 1 0 27 0 a13.5 13.5 0 1 0 -27 0zM1658.98 697.88 a13.5 13.5 0 1 0 27 0 a13.5 13.5 0 1 0 -27 0zM1542.07 765.38 a13.5 13.5 0 1 0 27 0 a13.5 13.5 0 1 0 -27 0z" fill="rgba(3, 223, 59, 0.05)"></path><path d="M112.16 -11.35L155.46 13.65L155.46 63.65L112.16 88.65L68.85 63.65L68.85 13.65zM155.46 213.65L198.76 238.65L198.76 288.65L155.46 313.65L112.16 288.65L112.16 238.65zM198.76 138.65L242.06 163.65L242.06 213.65L198.76 238.65L155.46 213.65L155.46 163.65zM198.76 438.65L242.06 463.65L242.06 513.65L198.76 538.65L155.46 513.65L155.46 463.65zM242.06 513.65L285.37 538.65L285.37 588.65L242.06 613.65L198.76 588.65L198.76 538.65zM285.37 -11.35L328.67 13.65L328.67 63.65L285.37 88.65L242.06 63.65L242.06 13.65zM328.67 213.65L371.97 238.65L371.97 288.65L328.67 313.65L285.37 288.65L285.37 238.65zM328.67 513.65L371.97 538.65L371.97 588.65L328.67 613.65L285.37 588.65L285.37 538.65zM588.48 63.65L631.78 88.65L631.78 138.65L588.48 163.65L545.18 138.65L545.18 88.65zM545.18 288.65L588.48 313.65L588.48 363.65L545.18 388.65L501.88 363.65L501.88 313.65zM675.09 363.65L718.39 388.65L718.39 438.65L675.09 463.65L631.78 438.65L631.78 388.65zM631.78 438.65L675.09 463.65L675.09 513.65L631.78 538.65L588.48 513.65L588.48 463.65zM848.3 63.65L891.6 88.65L891.6 138.65L848.3 163.65L805 138.65L805 88.65zM934.9 363.65L978.21 388.65L978.21 438.65L934.9 463.65L891.6 438.65L891.6 388.65zM1108.11 213.65L1151.41 238.65L1151.41 288.65L1108.11 313.65L1064.81 288.65L1064.81 238.65zM1238.02 -11.35L1281.32 13.65L1281.32 63.65L1238.02 88.65L1194.72 63.65L1194.72 13.65z" stroke="rgba(0, 0, 0, 0)" stroke-width="2"></path></g><defs><mask id="SvgjsMask1115"><rect width="1440" height="560" fill="#ffffff"></rect></mask></defs></svg>